<svg width="53" height="41" viewBox="0 0 53 41" fill="none" xmlns="http://www.w3.org/2000/svg">
<path d="M44.8667 3.65109C41.4887 2.10323 37.8663 0.96283 34.0788 0.309678C34.0098 0.297072 33.9409 0.328575 33.9054 0.39158C33.4395 1.21904 32.9235 2.29854 32.5621 3.14701C28.4884 2.53798 24.4356 2.53798 20.4455 3.14701C20.084 2.27968 19.5492 1.21904 19.0813 0.39158C19.0457 0.330677 18.9768 0.299175 18.9079 0.309678C15.1225 0.960743 11.5 2.10114 8.1199 3.65109C8.09064 3.66369 8.06555 3.68471 8.04891 3.71199C1.17791 13.963 -0.704348 23.9621 0.219023 33.8372C0.223201 33.8855 0.250358 33.9318 0.287962 33.9611C4.82125 37.2857 9.21252 39.304 13.5222 40.6418C13.5912 40.6628 13.6643 40.6376 13.7082 40.5809C14.7277 39.1906 15.6364 37.7247 16.4156 36.1831C16.4616 36.0928 16.4177 35.9857 16.3237 35.95C14.8822 35.4039 13.5097 34.7382 12.1894 33.9821C12.085 33.9212 12.0766 33.7721 12.1727 33.7007C12.4505 33.4928 12.7284 33.2764 12.9937 33.058C13.0417 33.0181 13.1086 33.0097 13.1651 33.0349C21.8388 36.9896 31.2292 36.9896 39.8007 33.0349C39.8571 33.0076 39.924 33.016 39.9741 33.0559C40.2395 33.2743 40.5173 33.4928 40.7972 33.7007C40.8933 33.7721 40.887 33.9212 40.7826 33.9821C39.4623 34.7529 38.0898 35.4039 36.6462 35.9479C36.5522 35.9836 36.5104 36.0928 36.5564 36.1831C37.3523 37.7225 38.2611 39.1885 39.2617 40.5788C39.3035 40.6376 39.3787 40.6628 39.4477 40.6418C43.7783 39.304 48.1695 37.2857 52.7028 33.9611C52.7425 33.9318 52.7676 33.8876 52.7718 33.8393C53.8769 22.4226 50.9208 12.5055 44.9356 3.71408C44.921 3.68471 44.896 3.66369 44.8667 3.65109ZM17.7109 27.8243C15.0995 27.8243 12.9478 25.4301 12.9478 22.4898C12.9478 19.5495 15.0577 17.1554 17.7109 17.1554C20.3848 17.1554 22.5157 19.5706 22.4739 22.4898C22.4739 25.4301 20.3639 27.8243 17.7109 27.8243ZM35.3217 27.8243C32.7104 27.8243 30.5587 25.4301 30.5587 22.4898C30.5587 19.5495 32.6686 17.1554 35.3217 17.1554C37.9958 17.1554 40.1266 19.5706 40.0849 22.4898C40.0849 25.4301 37.9958 27.8243 35.3217 27.8243Z" fill="#882D83"/>
</svg>
