<svg width="40" height="40" viewBox="0 0 40 40" fill="none" xmlns="http://www.w3.org/2000/svg">
<path fill-rule="evenodd" clip-rule="evenodd" d="M12.0356 3.55556C7.37739 3.55556 3.55556 7.37739 3.55556 12.0356V27.9644C3.55556 32.6226 7.37739 36.4444 12.0356 36.4444H27.9644C32.6226 36.4444 36.4444 32.6226 36.4444 27.9644V12.0356C36.4444 7.37739 32.6226 3.55556 27.9644 3.55556H12.0356ZM0 12.0356C0 5.41372 5.41372 0 12.0356 0H27.9644C34.5863 0 40 5.41372 40 12.0356V27.9644C40 34.5863 34.5863 40 27.9644 40H12.0356C5.41372 40 0 34.5863 0 27.9644V12.0356Z" fill="#882D83"/>
<path fill-rule="evenodd" clip-rule="evenodd" d="M20.0004 14.6667C17.0549 14.6667 14.6671 17.0545 14.6671 20C14.6671 22.9455 17.0549 25.3333 20.0004 25.3333C22.946 25.3333 25.3338 22.9455 25.3338 20C25.3338 17.0545 22.946 14.6667 20.0004 14.6667ZM10.2227 20C10.2227 14.5999 14.6003 10.2222 20.0004 10.2222C25.4006 10.2222 29.7782 14.5999 29.7782 20C29.7782 25.4001 25.4006 29.7778 20.0004 29.7778C14.6003 29.7778 10.2227 25.4001 10.2227 20Z" fill="#882D83"/>
<path d="M30.2399 11.9689C31.7127 11.9689 32.9066 10.775 32.9066 9.30222C32.9066 7.82946 31.7127 6.63556 30.2399 6.63556C28.7671 6.63556 27.5732 7.82946 27.5732 9.30222C27.5732 10.775 28.7671 11.9689 30.2399 11.9689Z" fill="#882D83"/>
</svg>
