<svg width="244" height="244" viewBox="0 0 244 244" fill="none" xmlns="http://www.w3.org/2000/svg">
<path d="M122 240C187.17 240 240 187.17 240 122C240 56.8304 187.17 4 122 4C56.8304 4 4 56.8304 4 122C4 187.17 56.8304 240 122 240Z"  fill="white"  stroke-miterlimit="10"/>
<path d="M184.849 118.962H156.268V123.013H184.849V118.962Z" fill="#008485"/>
<path d="M86.9607 119.155H58.3789V123.205H86.9607V119.155Z" fill="#008485"/>
<path d="M182.988 88.9926L155.104 100.542L156.655 104.284L184.538 92.7347L182.988 88.9926Z" fill="#008485"/>
<path d="M59.7364 89.0715L58.1973 92.7978L86.1968 104.363L87.7359 100.636L59.7364 89.0715Z" fill="#008485"/>
<path d="M154.754 136.523L153.204 140.266L179.61 151.203L181.16 147.461L154.754 136.523Z" fill="#008485"/>
<path d="M88.4765 136.518L62.0703 147.456L63.6203 151.198L90.0265 140.26L88.4765 136.518Z" fill="#008485"/>
<path d="M121.69 173.823L121.325 173.755C110.5 171.746 101.921 166.201 95.8209 157.28C91.8348 151.438 88.8975 144.104 87.0933 135.481C85.6025 127.997 84.8781 120.381 84.9315 112.75C84.9078 104.274 85.6163 95.8127 87.0491 87.4591L91.0271 88.2226C89.6528 96.3515 88.9686 104.582 88.9819 112.826C88.9819 125.283 90.782 142.714 99.1721 155.018C104.573 162.922 112.147 167.876 121.674 169.729C131.222 167.868 138.796 162.922 144.197 155.018C152.587 142.73 154.367 125.283 154.387 112.826C154.403 104.582 153.717 96.3509 152.338 88.2226L156.32 87.4591C157.753 95.8127 158.461 104.274 158.437 112.75C158.495 120.376 157.776 127.989 156.292 135.469C154.487 144.092 151.55 151.426 147.564 157.268C141.464 166.201 132.885 171.734 122.06 173.743L121.69 173.823Z" fill="#008485"/>
<path d="M120.746 131.314H116.692V110.668C113.815 104.557 110.062 100.956 105.537 99.9599C97.3722 98.1597 88.9861 105.236 88.9057 105.308L86.2617 102.234C86.6635 101.889 96.235 93.7758 106.385 95.9979C112.328 97.2958 117.098 101.8 120.562 109.379L120.746 109.78V131.314Z" fill="#9F6221"/>
<path d="M121.562 144.639C121.296 144.64 121.033 144.588 120.787 144.487C120.542 144.385 120.319 144.236 120.131 144.048L116.515 140.432H110.584V136.369H117.363C117.629 136.369 117.892 136.421 118.138 136.523C118.383 136.625 118.606 136.775 118.793 136.964L121.562 139.733L124.206 137.093C124.393 136.904 124.616 136.754 124.861 136.652C125.107 136.55 125.37 136.497 125.636 136.498H132.182V140.552H126.476L122.996 144.032C122.81 144.224 122.587 144.376 122.34 144.48C122.094 144.584 121.829 144.638 121.562 144.639Z" fill="#9F6221"/>
<path d="M121.674 160.78H121.377C114.655 160.635 109.957 155.601 109.76 155.388L108.233 153.724L110.046 152.386C111.273 151.499 112.558 150.694 113.891 149.975C117.142 148.239 119.565 147.809 121.297 148.657L121.494 148.762L121.546 148.733C123.274 147.845 125.64 148.243 128.992 149.983C130.343 150.694 131.647 151.489 132.897 152.366L134.834 153.756L133.151 155.444C129.606 158.984 125.753 160.78 121.674 160.78ZM114.614 154.222C116.19 155.347 118.633 156.673 121.494 156.726C123.844 156.77 126.139 155.942 128.361 154.263C128.023 154.066 127.658 153.861 127.28 153.66C125.154 152.535 123.969 152.318 123.531 152.33C123.516 152.438 123.509 152.546 123.511 152.655L119.46 152.707C119.458 152.564 119.441 152.422 119.412 152.282C119.01 152.253 117.841 152.446 115.679 153.612C115.306 153.812 114.948 154.021 114.614 154.222Z" fill="#9F6221"/>
<path d="M130.856 108.575L127.3 106.634C130.916 100.032 135.453 96.2752 140.817 95.4675C149.485 94.1656 156.814 101.193 157.119 101.495L154.306 104.396L155.717 102.945L154.282 104.4C154.222 104.34 148.054 98.4611 141.388 99.4777C137.366 100.092 133.817 103.154 130.856 108.575Z" fill="#9F6221"/>
<path d="M100.406 120.987C102.423 120.987 104.058 119.352 104.058 117.335C104.058 115.318 102.423 113.682 100.406 113.682C98.3882 113.682 96.7529 115.318 96.7529 117.335C96.7529 119.352 98.3882 120.987 100.406 120.987Z" fill="#2C1614"/>
<path d="M142.746 120.987C144.764 120.987 146.399 119.352 146.399 117.335C146.399 115.318 144.764 113.682 142.746 113.682C140.729 113.682 139.094 115.318 139.094 117.335C139.094 119.352 140.729 120.987 142.746 120.987Z" fill="#2C1614"/>
<path d="M121.386 78.6953C125.6 78.6953 129.016 68.5596 129.016 56.0565C129.016 43.5534 125.6 33.4176 121.386 33.4176C117.171 33.4176 113.755 43.5534 113.755 56.0565C113.755 68.5596 117.171 78.6953 121.386 78.6953Z" fill="#CD4858"/>
<path d="M98.7214 91.6264C101.701 88.6464 96.9501 79.0636 88.109 70.2226C79.268 61.3816 69.6852 56.6303 66.7053 59.6103C63.7253 62.5902 68.4766 72.173 77.3176 81.014C86.1587 89.855 95.7415 94.6064 98.7214 91.6264Z" fill="#CD4858"/>
<path d="M164.686 81.0127C173.527 72.1716 178.279 62.5889 175.299 59.6089C172.319 56.6289 162.736 61.3803 153.895 70.2213C145.054 79.0623 140.302 88.6451 143.282 91.625C146.262 94.605 155.845 89.8537 164.686 81.0127Z" fill="#CD4858"/>
<path d="M104.066 71.7457C106.986 70.5363 106.443 62.532 102.854 53.8674C99.2655 45.2029 93.9893 39.1593 91.0696 40.3686C88.15 41.578 88.6926 49.5823 92.2816 58.2469C95.8706 66.9114 101.147 72.955 104.066 71.7457Z" fill="#882D83"/>
<path d="M150.136 58.2436C153.725 49.5791 154.267 41.5747 151.348 40.3654C148.428 39.156 143.152 45.1997 139.563 53.8642C135.974 62.5287 135.431 70.5331 138.351 71.7424C141.27 72.9518 146.547 66.9081 150.136 58.2436Z" fill="#882D83"/>
<path d="M118.677 178.613C118.982 178.084 119.422 177.645 119.951 177.339C120.48 177.034 121.08 176.873 121.691 176.873C122.302 176.873 122.902 177.034 123.431 177.339C123.96 177.645 124.399 178.084 124.704 178.613L127.115 182.772L132.532 192.155H110.857L116.274 182.772L118.677 178.613Z" fill="#882D83"/>
<path d="M143.361 173.389L148.777 182.772L154.194 192.155H143.361H132.527L137.944 182.772L143.361 173.389Z" fill="#CD4858"/>
<path d="M154.195 154.508L159.611 163.89L165.028 173.273H154.195H143.361L148.778 163.89L154.195 154.508Z" fill="#CD4858"/>
<path d="M89.1906 154.508L94.6072 163.89L100.024 173.273H89.1906H78.3574L83.774 163.89L89.1906 154.508Z" fill="#CD4858"/>
<path d="M100.025 173.389L105.441 182.772L110.858 192.155H100.025H89.1914L94.608 182.772L100.025 173.389Z" fill="#CD4858"/>
<path d="M121.691 215.565L127.111 206.182L132.528 196.8H121.691H110.857L116.274 206.182L121.691 215.565Z" fill="#CD4858"/>
<path d="M88.8571 118.44L86.3096 115.306C88.8662 113.368 91.76 111.921 94.8443 111.038C101.583 109.138 107.868 110.636 113.011 115.39L110.266 118.368C106.184 114.602 101.426 113.437 96.0619 114.904C93.4654 115.635 91.0239 116.833 88.8571 118.44Z" fill="#9F3625"/>
<path d="M133.09 118.351L130.342 115.374C135.473 110.644 141.85 109.081 148.786 110.857C151.951 111.681 154.945 113.062 157.626 114.936L155.195 118.179L156.4 116.571L155.195 118.179C152.902 116.6 150.349 115.438 147.652 114.747C142.091 113.361 137.189 114.57 133.09 118.351Z" fill="#9F3625"/>
<path d="M121.691 232.952C96.056 232.935 71.2149 224.058 51.3755 207.823C31.536 191.589 17.9181 168.996 12.8283 143.872C7.73847 118.747 11.4898 92.6354 23.4467 69.9598C35.4037 47.2841 54.8312 29.4387 78.4385 19.4462C105.508 8.41947 135.832 8.49972 162.843 19.6695C189.854 30.8393 211.379 52.1996 222.754 79.1245C234.13 106.05 234.442 136.372 223.623 163.525C212.803 190.679 191.723 212.477 164.947 224.2C151.265 229.999 136.552 232.976 121.691 232.952ZM121.691 19.4904C65.2626 19.4904 19.3501 65.3989 19.3501 121.831C19.3501 178.264 65.2626 224.172 121.691 224.172C178.119 224.172 224.036 178.264 224.036 121.831C224.036 65.3989 178.123 19.4904 121.691 19.4904Z" fill="#008485"/>
<path d="M122 240C187.17 240 240 187.17 240 122C240 56.8304 187.17 4 122 4C56.8304 4 4 56.8304 4 122C4 187.17 56.8304 240 122 240Z" stroke="#008485" stroke-width="8" stroke-miterlimit="10"/>

</svg>
