<svg width="41" height="41" viewBox="0 0 41 41" fill="none" xmlns="http://www.w3.org/2000/svg">
<path d="M41 20.5C41 31.8212 31.8212 41 20.5 41C9.17879 41 0 31.8212 0 20.5C0 9.17879 9.17879 0 20.5 0C31.8236 0 41 9.17879 41 20.5Z" fill="#882D83"/>
<path d="M10.1143 21.1888L10.2027 21.0498L15.5356 12.7072C15.6135 12.5851 15.7967 12.5977 15.8557 12.7304C16.7466 14.727 17.5154 17.2102 17.1552 18.7562C17.0015 19.3923 16.5802 20.2537 16.1063 21.0498C16.0453 21.1657 15.9779 21.2794 15.9062 21.3889C15.8725 21.4395 15.8157 21.4689 15.7546 21.4689H10.2701C10.1227 21.4689 10.0363 21.3089 10.1143 21.1888Z" fill="white"/>
<path d="M33.8846 22.739V24.0596C33.8846 24.1354 33.8382 24.2028 33.7708 24.2323C33.358 24.4092 31.9448 25.0579 31.3571 25.8751C29.8575 27.9623 28.7118 30.9468 26.1506 30.9468H15.466C11.6791 30.9468 8.61035 27.8676 8.61035 24.068V23.9458C8.61035 23.8447 8.69247 23.7626 8.79358 23.7626H14.7499C14.8678 23.7626 14.9542 23.8721 14.9437 23.9879C14.9015 24.3755 14.9731 24.7715 15.1564 25.1316C15.5102 25.8498 16.2432 26.2985 17.0351 26.2985H19.9838V23.9964H17.0688C16.9192 23.9964 16.8308 23.8237 16.9172 23.7015C16.9487 23.6531 16.9846 23.6025 17.0224 23.5457C17.2984 23.1539 17.6922 22.5452 18.084 21.8523C18.3515 21.3847 18.6105 20.8856 18.819 20.3843C18.8612 20.2937 18.8948 20.201 18.9285 20.1105C18.9854 19.9504 19.0444 19.8009 19.0865 19.6513C19.1287 19.5249 19.1623 19.3923 19.196 19.268C19.295 18.8425 19.3371 18.3918 19.3371 17.9243C19.3371 17.741 19.3287 17.5493 19.3119 17.3661C19.3034 17.166 19.2782 16.9659 19.2529 16.7658C19.236 16.5889 19.2045 16.4141 19.1708 16.2309C19.1287 15.9634 19.0697 15.698 19.0023 15.4305L18.9791 15.3294C18.9285 15.1462 18.8864 14.9714 18.8275 14.7882C18.661 14.2131 18.4694 13.6529 18.2672 13.1285C18.1935 12.92 18.1092 12.7199 18.025 12.5198C17.9007 12.2186 17.7743 11.9448 17.6585 11.6857C17.5996 11.5678 17.549 11.4604 17.4985 11.3508C17.4416 11.2266 17.3826 11.1023 17.3236 10.9844C17.2815 10.8938 17.2331 10.8096 17.1994 10.7253L16.8392 10.0598C16.7887 9.96919 16.8729 9.86177 16.9719 9.88916L19.2255 10.4999H19.2319C19.236 10.4999 19.2382 10.5021 19.2403 10.5021L19.5372 10.5842L19.8637 10.6769L19.9838 10.7106V9.37104C19.9838 8.72443 20.5019 8.2 21.1422 8.2C21.4623 8.2 21.7529 8.33058 21.9615 8.54329C22.17 8.75604 22.3005 9.04669 22.3005 9.37104V11.3593L22.5407 11.4267C22.5596 11.433 22.5786 11.4414 22.5954 11.454C22.6544 11.4983 22.7386 11.5636 22.846 11.6436C22.9303 11.711 23.0209 11.7932 23.1304 11.8774C23.3473 12.0522 23.6064 12.2776 23.8907 12.5366C23.9665 12.6019 24.0402 12.6693 24.1077 12.7367C24.4742 13.0779 24.8848 13.4781 25.2766 13.9204C25.3861 14.0447 25.4935 14.171 25.603 14.3037C25.7126 14.4385 25.8284 14.5712 25.9295 14.7039C26.0622 14.8808 26.2054 15.0641 26.3297 15.2557C26.3886 15.3463 26.4561 15.439 26.5129 15.5295C26.673 15.7717 26.8141 16.0224 26.9489 16.273C27.0058 16.3888 27.0647 16.5152 27.1153 16.6395C27.2648 16.9744 27.3828 17.3156 27.4586 17.6568C27.4817 17.7305 27.4986 17.8105 27.507 17.8821V17.899C27.5323 18.0001 27.5407 18.1075 27.5492 18.217C27.5829 18.5666 27.566 18.9162 27.4902 19.268C27.4586 19.4176 27.4165 19.5586 27.3659 19.7082C27.3154 19.8514 27.2648 20.0009 27.1995 20.1421C27.0732 20.4348 26.9236 20.7276 26.7467 21.0014C26.6898 21.1025 26.6224 21.2099 26.555 21.311C26.4813 21.4184 26.4055 21.5195 26.3381 21.6185C26.2454 21.7449 26.1465 21.8776 26.0454 21.9955C25.9548 22.1198 25.8621 22.2441 25.761 22.3536C25.6199 22.5199 25.4851 22.6779 25.344 22.8296C25.2598 22.9285 25.1692 23.0297 25.0765 23.1202C24.986 23.2213 24.8933 23.3119 24.809 23.3961C24.6679 23.5372 24.55 23.6467 24.4509 23.7373L24.2193 23.9501C24.1856 23.9795 24.1414 23.9964 24.095 23.9964H22.3005V26.2985H24.5584C25.0639 26.2985 25.5441 26.1194 25.9316 25.7908C26.0643 25.675 26.6435 25.1737 27.328 24.4176C27.3512 24.3923 27.3807 24.3734 27.4144 24.365L33.6508 22.5621C33.7666 22.5284 33.8846 22.6168 33.8846 22.739Z" fill="white"/>
</svg>
