<svg width="249" height="86" viewBox="0 0 249 86" fill="none" xmlns="http://www.w3.org/2000/svg">
<path d="M11.722 78.9311C12.2427 80.7813 13.8051 81.6493 15.9476 81.6493C17.5968 81.6493 19.3921 81.1285 19.3921 79.6255C19.3921 78.255 17.944 77.5972 15.8608 77.1952L13.5173 76.7384C10.3606 76.1308 7.63789 74.5958 7.63789 71.2975C7.63789 67.1586 11.9504 65.3039 15.8334 65.3039C18.9582 65.3039 22.0281 66.5191 23.2432 69.5022L19.1043 71.0051C18.5836 69.7032 17.2496 68.9814 15.4497 68.9814C13.6498 68.9814 12.3341 69.6392 12.3341 70.8087C12.3341 71.7954 13.2021 72.5172 14.5315 72.7776L17.14 73.2984C20.2647 73.938 24.0884 74.9202 24.0884 78.9174C24.0884 83.0289 19.9175 85.3131 15.9248 85.3131C11.6945 85.3131 8.74342 83.5177 7.55566 80.4204L11.722 78.9311Z" fill="#008485"/>
<path d="M31.9782 65.6419H37.0034L44.3127 84.9796H39.3652L38.2048 81.5351H30.795L29.6393 84.9704H24.6689L31.9782 65.6419ZM32.0376 77.8302H36.9623L34.4725 70.4752L32.0376 77.8302Z" fill="#008485"/>
<path d="M44.0791 75.313C44.0791 69.2052 47.8708 65.2947 53.8644 65.2947C57.5191 65.2947 60.3194 67.0627 61.7996 69.7808L57.7429 71.2655C57.3374 70.5671 56.7483 69.993 56.0396 69.6056C55.3309 69.2183 54.5297 69.0324 53.7228 69.0682C51.0275 69.0682 48.9169 71.3843 48.9169 75.3222C48.9169 79.3743 51.0275 81.5716 53.7776 81.5716C55.2258 81.5716 56.9754 81.0828 57.8891 79.4017L61.9138 80.8772C60.3514 83.6182 57.3957 85.3359 53.7502 85.3359C47.7292 85.3268 44.0791 81.4757 44.0791 75.313Z" fill="#008485"/>
<path d="M64.0518 84.9704V65.6419H71.4935C76.5187 65.6419 80.2647 66.8297 80.2647 71.6356C80.2647 73.8329 79.2825 76.2039 75.605 77.1952L81.2194 84.9613H75.9248L70.6849 77.652H68.6292V84.9613L64.0518 84.9704ZM68.6201 73.8557H71.6306C73.7731 73.8557 75.4223 73.4766 75.4223 71.6858C75.4223 69.895 73.7731 69.4839 71.6306 69.4839H68.6201V73.8557Z" fill="#008485"/>
<path d="M95.5503 83.3442C95.5745 83.7719 95.5219 84.2004 95.3949 84.6096C95.2914 84.8563 95.1391 84.9796 94.9381 84.9796H83.4351C83.2478 84.9796 83.1016 84.8563 83.0057 84.6096C82.8054 83.7717 82.8054 82.8984 83.0057 82.0605C83.1016 81.8183 83.2478 81.695 83.4351 81.695H94.9564C95.1437 81.695 95.2899 81.8183 95.4132 82.0605C95.5355 82.4767 95.5819 82.9115 95.5503 83.3442ZM95.4041 67.3551C95.427 67.7809 95.376 68.2075 95.2533 68.6159C95.1574 68.8626 95.0112 68.9905 94.8239 68.9905H83.5676C83.3803 68.9905 83.2387 68.8626 83.1427 68.6159C83.0309 68.2055 82.9847 67.78 83.0057 67.3551C82.9831 66.9287 83.0294 66.5014 83.1427 66.0897C83.2372 65.8521 83.3788 65.7333 83.5676 65.7333H94.8239C94.9128 65.734 94.9991 65.7628 95.0706 65.8156C95.1554 65.8885 95.2186 65.9833 95.2533 66.0897C95.3103 66.2507 95.3486 66.4178 95.3675 66.5876C95.3942 66.8456 95.4064 67.1049 95.4041 67.3642V67.3551ZM94.0793 75.071C94.1015 75.4799 94.052 75.8896 93.9331 76.2816C93.9081 76.3829 93.8491 76.4726 93.766 76.5358C93.6829 76.599 93.5806 76.6318 93.4762 76.6287H84.8604C84.7697 76.6308 84.6811 76.6018 84.6092 76.5465C84.5272 76.4757 84.4657 76.3842 84.431 76.2816C84.373 76.1258 84.3361 75.9629 84.3214 75.7973C84.2913 75.5564 84.2776 75.3137 84.2803 75.071C84.2774 74.8297 84.2911 74.5885 84.3214 74.3492C84.3386 74.1929 84.3754 74.0394 84.431 73.8923C84.4671 73.7891 84.5283 73.6964 84.6092 73.6228C84.6811 73.5675 84.7697 73.5385 84.8604 73.5406H93.4991C93.5912 73.5382 93.6814 73.5672 93.7549 73.6228C93.8358 73.6964 93.897 73.7891 93.9331 73.8923C93.9867 74.04 94.0234 74.1932 94.0427 74.3492C94.0692 74.5919 94.0814 74.8359 94.0793 75.0801V75.071Z" fill="#008485"/>
<path d="M98.123 84.9704V65.6419H104.491C110.805 65.6419 115.697 67.9581 115.697 75.313C115.697 82.668 110.805 84.9704 104.491 84.9704H98.123ZM104.578 81.1194C107.908 81.1194 110.974 80.3976 110.974 75.3039C110.974 70.2102 107.904 69.4245 104.578 69.4245H102.696V81.1194H104.578Z" fill="#008485"/>
<path d="M130.229 75.5963C130.229 69.7077 134.08 66.0029 139.721 66.0029C142.988 66.0029 145.752 67.314 147.232 69.8539L143.445 71.4072C142.828 70.4295 141.617 69.6209 139.676 69.6209C137.022 69.6209 134.897 71.6584 134.897 75.5963C134.897 79.5342 136.853 81.6858 139.758 81.6858C141.795 81.6858 143.92 80.9047 143.92 78.5291V77.9992H139.731V74.4268H148.333V84.9705H145.427L144.815 82.9147C143.614 84.5319 141.773 85.3176 139.091 85.3176C133.604 85.3176 130.229 81.5442 130.229 75.5963Z" fill="#008485"/>
<path d="M156.757 66.3272H161.618L168.68 84.9704H163.879L162.76 81.6493H155.61L154.496 84.9704H149.694L156.757 66.3272ZM156.812 78.0814H161.558L159.16 70.9914L156.812 78.0814Z" fill="#008485"/>
<path d="M170.274 84.9704V66.3272H177.451C182.28 66.3272 185.912 67.4738 185.912 72.1061C185.912 74.2304 184.962 76.5191 181.417 77.4693L186.844 84.9704H181.723L176.67 77.9352H174.687V84.9704H170.274ZM174.687 74.2486H177.593C179.658 74.2486 181.247 73.8832 181.247 72.1518C181.247 70.4204 179.658 70.0321 177.593 70.0321H174.687V74.2486Z" fill="#008485"/>
<path d="M188.621 84.9704V66.3272H194.765C200.855 66.3272 205.574 68.5611 205.574 75.6557C205.574 82.7502 200.855 84.9704 194.765 84.9704H188.621ZM194.852 81.2564C198.05 81.2564 201.024 80.5575 201.024 75.6465C201.024 70.7356 198.064 69.9773 194.852 69.9773H193.025V81.2564H194.852Z" fill="#008485"/>
<path d="M220.261 83.399C220.284 83.8113 220.233 84.2244 220.11 84.6187C220.009 84.8608 219.868 84.9796 219.685 84.9796H208.529C208.347 84.9796 208.209 84.8608 208.114 84.6187C207.995 84.2235 207.946 83.8109 207.967 83.399C207.944 82.978 207.994 82.5561 208.114 82.1518C208.209 81.9188 208.347 81.8001 208.529 81.8001H219.685C219.868 81.8001 220.009 81.9188 220.11 82.1518C220.234 82.5553 220.285 82.9776 220.261 83.399ZM220.114 67.9215C220.137 68.3347 220.089 68.7487 219.973 69.1459C219.877 69.388 219.735 69.5067 219.557 69.5067H208.657C208.474 69.5067 208.337 69.388 208.251 69.1459C208.139 68.7479 208.092 68.3344 208.114 67.9215C208.091 67.5102 208.137 67.0979 208.251 66.7018C208.337 66.4688 208.474 66.3546 208.657 66.3546H219.557C219.641 66.3553 219.723 66.3824 219.79 66.4323C219.875 66.5033 219.938 66.5967 219.973 66.7018C220.026 66.857 220.062 67.018 220.078 67.1815C220.106 67.4271 220.119 67.6743 220.114 67.9215ZM218.822 75.377C218.844 75.7725 218.794 76.1687 218.675 76.5465C218.58 76.7749 218.442 76.8891 218.26 76.8891H209.909C209.821 76.8914 209.735 76.8622 209.667 76.8069C209.586 76.7373 209.526 76.6474 209.493 76.5465C209.44 76.3986 209.404 76.2454 209.384 76.0897C209.359 75.856 209.349 75.6211 209.352 75.3862C209.349 75.1528 209.359 74.9194 209.384 74.6872C209.404 74.5315 209.441 74.3783 209.493 74.2304C209.529 74.1307 209.589 74.0413 209.667 73.97C209.737 73.918 209.822 73.8907 209.909 73.8923H218.273C218.362 73.8907 218.449 73.9179 218.52 73.97C218.597 74.0417 218.655 74.1311 218.689 74.2304C218.746 74.3771 218.783 74.5307 218.799 74.6872C218.82 74.9165 218.828 75.1468 218.822 75.377Z" fill="#008485"/>
<path d="M228.799 66.3272L236.004 79.6209V66.3272H240.293V84.9704H234.638L227.433 71.6812V84.9704H223.189V66.3272H228.799Z" fill="#008485"/>
<path d="M39.9864 42.9421H0L19.9635 0L39.9864 42.9421ZM11.8776 35.6876H28.0448L19.9635 16.551L11.8776 35.6876Z" fill="#008485"/>
<path d="M43.5225 0.758324H73.7144V9.5386H53.4996V16.8479H73.7144V25.6464H53.4996V42.942H43.5225V0.758324Z" fill="#008485"/>
<path d="M110.791 34.1755V42.942H80.5986V0.758324H90.5804V34.1755H110.791Z" fill="#008485"/>
<path d="M135.222 0C148.173 0 157.205 8.71632 157.205 21.8548C157.205 34.9932 148.187 43.7141 135.222 43.7141C122.257 43.7141 113.381 34.9932 113.381 21.8548C113.381 8.71632 122.284 0 135.222 0ZM135.222 35.5003C141.412 35.5003 146.592 30.8269 146.592 21.8548C146.592 12.8826 141.426 8.22295 135.222 8.22295C129.018 8.22295 123.915 12.8963 123.915 21.8639C123.915 30.8315 129.11 35.5003 135.222 35.5003Z" fill="#008485"/>
<path d="M164.669 42.942V0.758324H180.905C191.832 0.758324 200.041 3.34855 200.041 13.8328C200.041 18.6341 197.894 23.8146 189.872 25.9617L202.129 42.942H190.567L179.146 27.0215H174.664V42.942H164.669ZM174.651 18.6843H181.22C185.893 18.6843 189.493 17.8621 189.493 13.947C189.493 10.032 185.893 9.14573 181.22 9.14573H174.651V18.6843Z" fill="#008485"/>
<path d="M222.019 0.758324H233.011L249 42.9557H238.132L235.605 35.4363H219.434L216.907 42.942H206.03L222.019 0.758324ZM222.143 27.3504H232.883L227.456 11.3065L222.143 27.3504Z" fill="#008485"/>
</svg>
