<svg width="48" height="40" viewBox="0 0 48 40" fill="none" xmlns="http://www.w3.org/2000/svg">
<path d="M46.9123 4.88588C46.1582 5.22033 45.3829 5.50261 44.5908 5.73177C45.5287 4.67112 46.2437 3.42312 46.6802 2.05744C46.778 1.75133 46.6766 1.41626 46.425 1.21605C46.1737 1.01569 45.8246 0.991689 45.5479 1.15566C43.8655 2.15344 42.0505 2.8705 40.1474 3.28981C38.2303 1.41657 35.6266 0.350502 32.9348 0.350502C27.253 0.350502 22.6305 4.9729 22.6305 10.6546C22.6305 11.102 22.6588 11.547 22.7149 11.9859C15.6643 11.3668 9.1095 7.90137 4.60834 2.37997C4.44793 2.18317 4.20081 2.07711 3.9478 2.09739C3.69464 2.11721 3.46718 2.25997 3.33928 2.47938C2.42636 4.04588 1.94372 5.83752 1.94372 7.66044C1.94372 10.1433 2.83017 12.499 4.39606 14.3397C3.91993 14.1748 3.45789 13.9687 3.01691 13.7239C2.78016 13.5922 2.49123 13.5942 2.25603 13.729C2.02068 13.8639 1.87312 14.1119 1.86692 14.3831C1.86584 14.4287 1.86584 14.4744 1.86584 14.5207C1.86584 18.2268 3.86047 21.5634 6.91002 23.382C6.64803 23.3558 6.3862 23.3179 6.12607 23.2682C5.85789 23.2169 5.58212 23.3109 5.40127 23.5155C5.22011 23.7198 5.16019 24.0047 5.24365 24.2649C6.37242 27.789 9.27859 30.3812 12.7919 31.1715C9.87797 32.9965 6.54568 33.9525 3.04757 33.9525C2.31766 33.9525 1.58357 33.9096 0.865117 33.8246C0.508213 33.7822 0.166949 33.9929 0.0454006 34.3323C-0.0761478 34.6719 0.052678 35.0505 0.356317 35.2451C4.8502 38.1265 10.0464 39.6495 15.3829 39.6495C25.8739 39.6495 32.4367 34.7024 36.0948 30.5523C40.6563 25.3774 43.2725 18.5278 43.2725 11.7599C43.2725 11.4772 43.2682 11.1917 43.2595 10.9071C45.0592 9.55117 46.6087 7.91019 47.8695 6.0241C48.061 5.73765 48.0403 5.35907 47.8184 5.09538C47.5968 4.83153 47.2275 4.74622 46.9123 4.88588Z" fill="#882D83"/>
</svg>
